<svg width="64" height="64" viewBox="0 0 64 64" fill="none" xmlns="http://www.w3.org/2000/svg">
<mask id="mask0_2981_14567" style="mask-type:alpha" maskUnits="userSpaceOnUse" x="14" y="21" width="36" height="24">
<path opacity="0.35" d="M14.75 41H44C44 43.0711 42.3211 44.75 40.25 44.75H14.75V41Z" fill="black"/>
<path opacity="0.75" fill-rule="evenodd" clip-rule="evenodd" d="M21.5 21.5H42.5V41H21.5V21.5ZM28.6667 29.8331V24.5H33.5628C34.7272 24.5 35.9261 24.732 36.735 25.5695C37.3781 26.2354 38 27.2122 38 28.5C38 29.7878 37.3781 30.7646 36.735 31.4305C35.9261 32.268 34.7272 32.5 33.5628 32.5H32V33.8333H35.3333C35.3333 35.3061 34.1394 36.5 32.6667 36.5H32C32 37.6046 31.1046 38.5 30 38.5H28.6667V36.5H26V36.4457C26 34.9816 27.2029 33.8032 28.6667 33.8333V32.5L26 32.4451C26 30.9812 27.2031 29.803 28.6667 29.8331ZM33.3333 27.1667H32V29.8331L33.3333 29.8333C33.3333 29.8333 34.6667 29.8336 34.6667 28.5002C34.6667 27.1669 33.3333 27.1667 33.3333 27.1667Z" fill="black"/>
<path fill-rule="evenodd" clip-rule="evenodd" d="M20.75 21.5C17.4363 21.5 14.75 24.1863 14.75 27.5V41H21.5V21.5H20.75ZM49.25 21.5H42.5V41H44.75C47.2353 41 49.25 38.9853 49.25 36.5V21.5Z" fill="black"/>
</mask>
<g mask="url(#mask0_2981_14567)">
<path d="M14 14H50V50H14V14Z" fill="#5C636B"/>
</g>
</svg>
