<svg width="36" height="36" viewBox="0 0 36 36" fill="none" xmlns="http://www.w3.org/2000/svg">
<mask id="mask0_3401_34680" style="mask-type:alpha" maskUnits="userSpaceOnUse" x="6" y="2" width="24" height="32">
<path fill-rule="evenodd" clip-rule="evenodd" d="M22.5 33.75H26.2501C27.9069 33.75 29.2501 32.4069 29.2501 30.75V5.25C29.2501 3.59315 27.9069 2.25 26.2501 2.25H22.5C24.1569 2.25 25.5 3.59315 25.5 5.25V30.75C25.5 32.4069 24.1569 33.75 22.5 33.75ZM21 2.25H10.5L11.3162 4.69868C11.7246 5.92371 12.871 6.75 14.1623 6.75H17.3377C18.629 6.75 19.7754 5.92371 20.1838 4.69868L21 2.25ZM11.25 29.85C11.25 29.1044 11.8544 28.5 12.6 28.5H18.9C19.6456 28.5 20.25 29.1044 20.25 29.85C20.25 30.5956 19.6456 31.2 18.9 31.2H12.6C11.8544 31.2 11.25 30.5956 11.25 29.85Z" fill="black"/>
<path fill-rule="evenodd" clip-rule="evenodd" d="M6.75 5.25C6.75 3.59315 8.09315 2.25 9.75 2.25H10.5L11.3162 4.69868C11.7246 5.92371 12.871 6.75 14.1623 6.75H17.3377C18.629 6.75 19.7754 5.92371 20.1838 4.69868L21 2.25H22.5C24.1569 2.25 25.5 3.59315 25.5 5.25V30.75C25.5 32.4069 24.1569 33.75 22.5 33.75H6.75V5.25ZM12.6 28.5C11.8544 28.5 11.25 29.1044 11.25 29.85C11.25 30.5956 11.8544 31.2 12.6 31.2H18.9C19.6456 31.2 20.25 30.5956 20.25 29.85C20.25 29.1044 19.6456 28.5 18.9 28.5H12.6Z" fill="url(#paint0_linear_3401_34680)"/>
</mask>
<g mask="url(#mask0_3401_34680)">
<path d="M0 0H36V36H0V0Z" fill="#5C636B"/>
</g>
<defs>
<linearGradient id="paint0_linear_3401_34680" x1="4.5" y1="6.75" x2="25.4469" y2="19.5189" gradientUnits="userSpaceOnUse">
<stop stop-opacity="0.65"/>
<stop offset="1" stop-opacity="0.3"/>
</linearGradient>
</defs>
</svg>
