<svg width="64" height="64" viewBox="0 0 64 64" fill="none" xmlns="http://www.w3.org/2000/svg">
<mask id="mask0_109_71" style="mask-type:alpha" maskUnits="userSpaceOnUse" x="14" y="15" width="36" height="32">
<path d="M14 42.5C14 40.0147 16.0147 38 18.5 38H24.5V42.5C24.5 44.9853 22.4853 47 20 47H14V42.5Z" fill="url(#paint0_linear_109_71)"/>
<path d="M24.5 36.5C24.5 34.0147 26.5147 32 29 32H35V42.5C35 44.9853 32.9853 47 30.5 47H24.5V36.5Z" fill="url(#paint1_linear_109_71)"/>
<path d="M30.5 27.5L40.25 15.5L50 27.5H45.5V42.5C45.5 44.9853 43.4853 47 41 47H35V27.5H30.5Z" fill="url(#paint2_linear_109_71)"/>
</mask>
<g mask="url(#mask0_109_71)">
<path d="M14 14H50V50H14V14Z" fill="#5C636B"/>
</g>
<defs>
<linearGradient id="paint0_linear_109_71" x1="14.75" y1="39.5" x2="23" y2="47" gradientUnits="userSpaceOnUse">
<stop stop-opacity="0.5"/>
<stop offset="1" stop-opacity="0.4"/>
</linearGradient>
<linearGradient id="paint1_linear_109_71" x1="25.25" y1="34.5" x2="36.8631" y2="40.8344" gradientUnits="userSpaceOnUse">
<stop stop-opacity="0.7"/>
<stop offset="1" stop-opacity="0.5"/>
</linearGradient>
<linearGradient id="paint2_linear_109_71" x1="41" y1="15.5" x2="55.5985" y2="37.1615" gradientUnits="userSpaceOnUse">
<stop/>
<stop offset="0.571429" stop-opacity="0.9"/>
<stop offset="1" stop-opacity="0.5"/>
</linearGradient>
</defs>
</svg>
