<svg width="36" height="36" viewBox="0 0 36 36" fill="none" xmlns="http://www.w3.org/2000/svg">
<g clip-path="url(#clip0_574_1037)">
<mask id="mask0_574_1037" style="mask-type:alpha" maskUnits="userSpaceOnUse" x="1" y="6" width="34" height="26">
<path fill-rule="evenodd" clip-rule="evenodd" d="M28.5 12H34.5V27C34.5 29.4853 32.4853 31.5 30 31.5H7.5V25.5H24C26.4853 25.5 28.5 23.4853 28.5 21V12Z" fill="url(#paint0_linear_574_1037)"/>
<path fill-rule="evenodd" clip-rule="evenodd" d="M6 6C3.51472 6 1.5 8.01472 1.5 10.5V27H25.5C27.9853 27 30 24.9853 30 22.5V6H6ZM12.4167 15.0831V9.75H17.3128C18.4772 9.75 19.6761 9.98202 20.485 10.8195C21.1281 11.4854 21.75 12.4622 21.75 13.75C21.75 15.0378 21.1281 16.0146 20.485 16.6805C19.6761 17.518 18.4772 17.75 17.3128 17.75H15.75V19.0833H19.0833C19.0833 20.5561 17.8894 21.75 16.4167 21.75H15.75C15.75 22.8546 14.8546 23.75 13.75 23.75H12.4167V21.75H9.75V21.6957C9.75 20.2316 10.9529 19.0532 12.4167 19.0833V17.75L9.75 17.6951C9.75 16.2312 10.9531 15.053 12.4167 15.0831ZM17.0833 12.4167H15.75V15.0831L17.0833 15.0833C17.0833 15.0833 18.4167 15.0836 18.4167 13.7502C18.4167 12.4169 17.0833 12.4167 17.0833 12.4167Z" fill="black"/>
</mask>
<g mask="url(#mask0_574_1037)">
<rect width="36" height="36" fill="#5C636B"/>
</g>
</g>
<defs>
<linearGradient id="paint0_linear_574_1037" x1="9" y1="25.5" x2="34.5" y2="25.5" gradientUnits="userSpaceOnUse">
<stop stop-opacity="0.5"/>
<stop offset="1" stop-opacity="0.3"/>
</linearGradient>
<clipPath id="clip0_574_1037">
<rect width="36" height="36" fill="white"/>
</clipPath>
</defs>
</svg>
