<svg width="36" height="36" viewBox="0 0 36 36" fill="none" xmlns="http://www.w3.org/2000/svg">
<mask id="mask0_4557_39848" style="mask-type:alpha" maskUnits="userSpaceOnUse" x="2" y="0" width="34" height="30">
<path fill-rule="evenodd" clip-rule="evenodd" d="M21.0322 21.3811L25.499 15L33.5208 26.4597C34.5647 27.951 33.4978 30 31.6775 30H28.5709C27.5864 30 26.6646 29.517 26.1043 28.7076L21.0322 21.3811Z" fill="url(#paint0_linear_4557_39848)"/>
<path fill-rule="evenodd" clip-rule="evenodd" d="M13.4987 10.5H13.4989L13.5261 10.5393L13.4986 10.5001L13.4987 10.5ZM18.6911 18H8.30636L2.44302 26.4693C1.40991 27.9615 2.47796 30 4.29295 30H28.5704C27.586 30 26.6642 29.517 26.1038 28.7076L18.6911 18Z" fill="black"/>
<path d="M13.5 10.5L18.75 18H8.25L13.5 10.5Z" fill="url(#paint1_linear_4557_39848)"/>
<path d="M25.5 5.25L13.5 0V10.5L25.5 5.25Z" fill="black"/>
</mask>
<g mask="url(#mask0_4557_39848)">
<path d="M0 0H36V36H0V0Z" fill="#5C636B"/>
</g>
<defs>
<linearGradient id="paint0_linear_4557_39848" x1="18.499" y1="15.75" x2="36.8657" y2="28.7781" gradientUnits="userSpaceOnUse">
<stop stop-color="#333333" stop-opacity="0.4"/>
<stop offset="1" stop-color="#333333" stop-opacity="0.3"/>
</linearGradient>
<linearGradient id="paint1_linear_4557_39848" x1="18.75" y1="15.5" x2="8.25" y2="15.5" gradientUnits="userSpaceOnUse">
<stop stop-opacity="0.55"/>
<stop offset="1" stop-opacity="0.35"/>
</linearGradient>
</defs>
</svg>
